# xmcd
#
# Track frame offsets: 
#        150
#        17877
#        36947
#        52005
#        78435
#        150525
#        230765
#        260190
#
# Disc length: 4244 seconds
#
# Revision: 0
# Processed by: cddbd v1.5.2PL0 Copyright (c) Steve Scherf et al.
# Submitted via: ExactAudioCopy v1.0b1
#
DISCID=69109208
DTITLE=Furtwangler - Mahler Lieder eines fahrenden Gesellen&Beethoven 
DTITLE=Symphonie No.3(1952.11.30) ALTUS LIVE
DYEAR=2004
DGENRE=Classical
TTITLE0=Wenn mein Schatz Hochzeit macht
TTITLE1=Ging heut' morgen ubers Feld
TTITLE2=Ich hab' ein gluhend Messer
TTITLE3=Die zwei blauen Augen von meinem Schatz
TTITLE4=Allegro con brio
TTITLE5=Marcia funebre
TTITLE6=Scherzo
TTITLE7=Finale
EXTD=
EXTT0=
EXTT1=
EXTT2=
EXTT3=
EXTT4=
EXTT5=
EXTT6=
EXTT7=
PLAYORDER=
